REM DIRINDEX 1\2\6,1\2\7,1\2\8,1\2\9,1\3\10,1\3\11,1\4\12,1\4\13,1\4\14,1\5\15,1\5\16,1\5\17
REM DIRNAME folder01,folder02,folder03,folder04,folder05,folder06,folder07,folder08,folder09,folder10,folder11,folder12,folder13,folder14,folder15,folder16,folder17
TITLE ""
FILE "1400_3_sec12_1167_1183.mp3" MP3
  TRACK 01 AUDIO
    TITLE "0:"
    INDEX 01 00:00:00
  TRACK 02 AUDIO
    TITLE "17:cjc029_6773"
    INDEX 01 00:00:15
  TRACK 03 AUDIO
    TITLE "0:"
    INDEX 01 00:01:40
  TRACK 04 AUDIO
    TITLE "16:cjc029_6774"
    INDEX 01 00:01:46
  TRACK 05 AUDIO
    TITLE "0:"
    INDEX 01 00:02:67
  TRACK 06 AUDIO
    TITLE "17:cjc029_6775"
    INDEX 01 00:03:55
  TRACK 07 AUDIO
    TITLE "0:"
    INDEX 01 00:05:48
  TRACK 08 AUDIO
    TITLE "16:cjc029_6776"
    INDEX 01 00:05:52
  TRACK 09 AUDIO
    TITLE "0:"
    INDEX 01 00:06:65
  TRACK 10 AUDIO
    TITLE "17:cjc029_6777"
    INDEX 01 00:07:49
  TRACK 11 AUDIO
    TITLE "0:"
    INDEX 01 00:08:38
  TRACK 12 AUDIO
    TITLE "16:cjc029_6778"
    INDEX 01 00:08:46
  TRACK 13 AUDIO
    TITLE "0:"
    INDEX 01 00:09:53
  TRACK 14 AUDIO
    TITLE "17:cjc029_6779"
    INDEX 01 00:10:39
  TRACK 15 AUDIO
    TITLE "0:"
    INDEX 01 00:12:73
  TRACK 16 AUDIO
    TITLE "16:cjc029_6780"
    INDEX 01 00:13:02
  TRACK 17 AUDIO
    TITLE "0:"
    INDEX 01 00:14:02
  TRACK 18 AUDIO
    TITLE "17:cjc029_6781"
    INDEX 01 00:14:62
  TRACK 19 AUDIO
    TITLE "0:"
    INDEX 01 00:17:16
  TRACK 20 AUDIO
    TITLE "16:cjc029_6782"
    INDEX 01 00:17:21
  TRACK 21 AUDIO
    TITLE "0:"
    INDEX 01 00:18:44
  TRACK 22 AUDIO
    TITLE "17:cjc029_6783"
    INDEX 01 00:19:30
  TRACK 23 AUDIO
    TITLE "0:"
    INDEX 01 00:20:43
  TRACK 24 AUDIO
    TITLE "16:cjc029_6784"
    INDEX 01 00:20:49
  TRACK 25 AUDIO
    TITLE "0:"
    INDEX 01 00:21:64
  TRACK 26 AUDIO
    TITLE "17:cjc029_6785"
    INDEX 01 00:22:48
  TRACK 27 AUDIO
    TITLE "0:"
    INDEX 01 00:23:53
  TRACK 28 AUDIO
    TITLE "16:cjc029_6786"
    INDEX 01 00:23:57
  TRACK 29 AUDIO
    TITLE "0:"
    INDEX 01 00:24:63
  TRACK 30 AUDIO
    TITLE "17:cjc029_6787"
    INDEX 01 00:25:46
  TRACK 31 AUDIO
    TITLE "0:"
    INDEX 01 00:26:46
  TRACK 32 AUDIO
    TITLE "16:cjc029_6788"
    INDEX 01 00:26:52
  TRACK 33 AUDIO
    TITLE "0:"
    INDEX 01 00:28:12
  TRACK 34 AUDIO
    TITLE "17:cjc029_6789"
    INDEX 01 00:28:72
  TRACK 35 AUDIO
    TITLE "0:"
    INDEX 01 00:29:72
  TRACK 36 AUDIO
    TITLE "16:cjc029_6790"
    INDEX 01 00:30:05
  TRACK 37 AUDIO
    TITLE "0:"
    INDEX 01 00:31:14
  TRACK 38 AUDIO
    TITLE "17:cjc029_6791"
    INDEX 01 00:31:73
  TRACK 39 AUDIO
    TITLE "0:"
    INDEX 01 00:32:74
  TRACK 40 AUDIO
    TITLE "16:cjc029_6792"
    INDEX 01 00:33:05
  TRACK 41 AUDIO
    TITLE "0:"
    INDEX 01 00:34:30
  TRACK 42 AUDIO
    TITLE "17:cjc029_6793"
    INDEX 01 00:35:14
  TRACK 43 AUDIO
    TITLE "0:"
    INDEX 01 00:36:54
  TRACK 44 AUDIO
    TITLE "16:cjc029_6794"
    INDEX 01 00:36:58
  TRACK 45 AUDIO
    TITLE "0:"
    INDEX 01 00:38:14
  TRACK 46 AUDIO
    TITLE "17:cjc029_6795"
    INDEX 01 00:39:00
  TRACK 47 AUDIO
    TITLE "0:"
    INDEX 01 00:40:30
  TRACK 48 AUDIO
    TITLE "16:cjc029_6796"
    INDEX 01 00:40:34
  TRACK 49 AUDIO
    TITLE "0:"
    INDEX 01 00:41:59
  TRACK 50 AUDIO
    TITLE "17:cjc029_6797"
    INDEX 01 00:42:43
  TRACK 51 AUDIO
    TITLE "0:"
    INDEX 01 00:44:07
  TRACK 52 AUDIO
    TITLE "16:cjc029_6798"
    INDEX 01 00:44:14
  TRACK 53 AUDIO
    TITLE "0:"
    INDEX 01 00:45:39
  TRACK 54 AUDIO
    TITLE "17:cjc029_6799"
    INDEX 01 00:46:23
  TRACK 55 AUDIO
    TITLE "0:"
    INDEX 01 00:47:44
  TRACK 56 AUDIO
    TITLE "16:cjc029_6800"
    INDEX 01 00:47:50
  TRACK 57 AUDIO
    TITLE "0:"
    INDEX 01 00:48:57
  TRACK 58 AUDIO
    TITLE "17:cjc029_6801"
    INDEX 01 00:49:41
  TRACK 59 AUDIO
    TITLE "0:"
    INDEX 01 00:51:42
  TRACK 60 AUDIO
    TITLE "16:cjc029_6802"
    INDEX 01 00:51:46
  TRACK 61 AUDIO
    TITLE "0:"
    INDEX 01 00:53:04
  TRACK 62 AUDIO
    TITLE "17:cjc029_6803"
    INDEX 01 00:53:60
  TRACK 63 AUDIO
    TITLE "0:"
    INDEX 01 00:55:22
  TRACK 64 AUDIO
    TITLE "16:cjc029_6804"
    INDEX 01 00:55:28
  TRACK 65 AUDIO
    TITLE "0:"
    INDEX 01 00:56:59
  TRACK 66 AUDIO
    TITLE "17:cjc029_6805"
    INDEX 01 00:57:45
  TRACK 67 AUDIO
    TITLE "0:"
    INDEX 01 01:00:45
  TRACK 68 AUDIO
    TITLE "16:cjc029_6806"
    INDEX 01 01:00:53
  TRACK 69 AUDIO
    TITLE "0:"
    INDEX 01 01:01:70
